# xmcd CD database file
#
# Track frame offsets:
#	150
#	17563
#	34523
#	53268
#	68805
#	88933
#	110015
#	130090
#	149505
#	168465
#	190813
#	213185
#
# Disc length: 3044 seconds
#
# Revision: 2
# Processed by: cddbd v1.5.2PL0 Copyright (c) Steve Scherf et al.
# Submitted via: CDex 1.70beta2
#
DISCID=a00be20c
DTITLE=テレサ・テン - ベスト&ベスト
DYEAR=2001
DGENRE=Vocal
TTITLE0=つぐない
TTITLE1=愛人
TTITLE2=時の流れに身をまかせ
TTITLE3=スキャンダル
TTITLE4=別れの予感
TTITLE5=恋人たちの神話
TTITLE6=涙の条件
TTITLE7=悲しみと踊らせて
TTITLE8=悲しい自由
TTITLE9=あなたと共に生きてゆく
TTITLE10=川の流れのように
TTITLE11=乱されて
EXTD=YEAR: 2001
EXTT0=
EXTT1=
EXTT2=
EXTT3=
EXTT4=
EXTT5=
EXTT6=
EXTT7=
EXTT8=
EXTT9=
EXTT10=
EXTT11=
PLAYORDER=
